<svg version="1.1" id="Layer_1" xmlns="http://www.w3.org/2000/svg" xmlns:xlink="http://www.w3.org/1999/xlink" x="0px" y="0px"
	 width="100%" viewBox="0 0 545 267" enable-background="new 0 0 545 267" xml:space="preserve">
<path fill="#647DEB" opacity="1.000000" stroke="none" 
	d="
M546.000000,13.000000 
	C546.000000,93.687561 546.000000,174.375122 545.756470,255.192749 
	C541.570679,259.208282 537.622559,263.087921 533.714294,267.007355 
	C533.596313,267.125641 533.895386,267.659729 534.000000,268.000000 
	C452.979095,268.000000 371.958221,268.000000 290.803680,267.757721 
	C290.065033,266.997864 289.498993,266.424377 288.849030,265.971313 
	C282.295624,261.403442 278.854706,255.627686 278.878326,247.149338 
	C279.087921,171.928131 279.042908,96.706032 278.938049,21.484390 
	C278.926758,13.397041 281.751587,7.279945 288.686005,3.060270 
	C289.310638,2.680185 289.570648,1.700978 290.000000,1.000000 
	C371.354218,1.000000 452.708466,1.000000 534.193726,1.233143 
	C537.744263,5.310081 541.149780,9.166549 544.616577,12.967158 
	C544.831482,13.202737 545.527710,12.999222 546.000000,13.000000 
M397.666138,192.993164 
	C409.390991,193.626633 418.763641,188.696091 426.973785,179.510132 
	C427.223785,184.049911 427.411255,187.454224 427.603790,190.950394 
	C436.193359,190.950394 444.274567,190.950394 452.625061,190.950394 
	C452.625061,150.209564 452.625061,109.816460 452.625061,69.268250 
	C444.121552,69.268250 435.932098,69.268250 427.280334,69.268250 
	C427.280334,76.667587 427.280334,83.639122 427.280334,90.610649 
	C427.280334,97.492081 427.280334,104.373512 427.280334,112.097816 
	C425.818329,111.029831 425.236420,110.731895 424.819092,110.281464 
	C409.810120,94.082207 381.036011,97.038994 367.728638,115.340775 
	C358.508453,128.021408 356.745667,142.346695 359.315857,157.260452 
	C362.871887,177.894714 376.871216,190.928879 397.666138,192.993164 
z"/>
<path fill="#FFFFFF" opacity="1.000000" stroke="none" 
	d="
M289.531342,1.000000 
	C289.570648,1.700978 289.310638,2.680185 288.686005,3.060270 
	C281.751587,7.279945 278.926758,13.397041 278.938049,21.484390 
	C279.042908,96.706032 279.087921,171.928131 278.878326,247.149338 
	C278.854706,255.627686 282.295624,261.403442 288.849030,265.971313 
	C289.498993,266.424377 290.065033,266.997864 290.335022,267.757721 
	C193.666656,268.000000 97.333305,268.000000 1.000000,268.000000 
	C1.000000,257.575745 1.000000,247.256531 1.468563,236.457977 
	C17.931473,235.985718 33.925816,235.999268 49.920162,235.997116 
	C57.656925,235.996078 57.992577,235.664185 57.995216,227.721863 
	C58.005852,195.733093 57.995312,163.744324 58.011604,131.755554 
	C58.012554,129.888657 58.180939,128.021851 58.299397,125.577309 
	C60.719543,126.876823 62.357513,127.673645 63.914680,128.605484 
	C76.909676,136.382065 90.036034,143.954559 102.793724,152.103729 
	C107.155846,154.890106 110.496727,154.680466 114.625137,152.200974 
	C147.158630,132.661636 179.780640,113.269440 212.259766,93.640579 
	C214.031250,92.569977 215.794022,89.808006 215.828171,87.803825 
	C216.111908,71.147888 216.059372,54.484528 215.946915,37.824501 
	C215.909302,32.252960 213.420547,31.028309 208.631683,33.924065 
	C199.231934,39.607937 189.855164,45.329781 180.464355,51.028450 
	C157.983109,64.670868 135.512161,78.330421 112.996628,91.916031 
	C110.711815,93.294655 108.700966,95.082794 105.350273,93.027534 
	C73.999924,73.797768 42.545002,54.737553 11.025323,35.786293 
	C8.013496,33.975430 4.357141,33.236542 1.000000,32.000000 
	C1.000000,21.680811 1.000000,11.361621 1.000000,1.000000 
	C97.020889,1.000000 193.041794,1.000000 289.531342,1.000000 
M159.000000,198.500000 
	C159.003510,208.986801 159.053711,219.473892 158.986877,229.960236 
	C158.961166,233.995163 160.350616,236.096130 164.811386,236.052444 
	C180.123932,235.902451 195.439026,235.952026 210.752716,236.020309 
	C214.211853,236.035721 216.018250,234.856216 216.013596,231.125046 
	C215.966904,193.672348 216.020508,156.219528 215.945984,118.766937 
	C215.935272,113.386963 213.703720,112.215851 209.101685,114.925705 
	C194.200165,123.700310 179.373108,132.601746 164.443161,141.327377 
	C160.587738,143.580643 158.881271,146.516357 158.933609,151.059341 
	C159.111969,166.537766 159.000717,182.019516 159.000000,198.500000 
z"/>
<path fill="#051428" opacity="1.000000" stroke="none" 
	d="
M1.000000,32.468658 
	C4.357141,33.236542 8.013496,33.975430 11.025323,35.786293 
	C42.545002,54.737553 73.999924,73.797768 105.350273,93.027534 
	C108.700966,95.082794 110.711815,93.294655 112.996628,91.916031 
	C135.512161,78.330421 157.983109,64.670868 180.464355,51.028450 
	C189.855164,45.329781 199.231934,39.607937 208.631683,33.924065 
	C213.420547,31.028309 215.909302,32.252960 215.946915,37.824501 
	C216.059372,54.484528 216.111908,71.147888 215.828171,87.803825 
	C215.794022,89.808006 214.031250,92.569977 212.259766,93.640579 
	C179.780640,113.269440 147.158630,132.661636 114.625137,152.200974 
	C110.496727,154.680466 107.155846,154.890106 102.793724,152.103729 
	C90.036034,143.954559 76.909676,136.382065 63.914680,128.605484 
	C62.357513,127.673645 60.719543,126.876823 58.299397,125.577309 
	C58.180939,128.021851 58.012554,129.888657 58.011604,131.755554 
	C57.995312,163.744324 58.005852,195.733093 57.995216,227.721863 
	C57.992577,235.664185 57.656925,235.996078 49.920162,235.997116 
	C33.925816,235.999268 17.931473,235.985718 1.468563,235.989319 
	C1.000000,168.312439 1.000000,100.624878 1.000000,32.468658 
z"/>
<path fill="#FFFFFF" opacity="1.000000" stroke="none" 
	d="
M534.479187,268.000000 
	C533.895386,267.659729 533.596313,267.125641 533.714294,267.007355 
	C537.622559,263.087921 541.570679,259.208282 545.756470,255.661407 
	C546.000000,259.921967 546.000000,263.843964 546.000000,268.000000 
	C542.321411,268.000000 538.639893,268.000000 534.479187,268.000000 
z"/>
<path fill="#FFFFFF" opacity="1.000000" stroke="none" 
	d="
M546.000000,12.520824 
	C545.527710,12.999222 544.831482,13.202737 544.616577,12.967158 
	C541.149780,9.166549 537.744263,5.310081 534.662415,1.233143 
	C538.591980,1.000000 542.183960,1.000000 546.000000,1.000000 
	C546.000000,4.678767 546.000000,8.360209 546.000000,12.520824 
z"/>
<path fill="#FDFDFF" opacity="1.000000" stroke="none" 
	d="
M397.211365,192.972626 
	C376.871216,190.928879 362.871887,177.894714 359.315857,157.260452 
	C356.745667,142.346695 358.508453,128.021408 367.728638,115.340775 
	C381.036011,97.038994 409.810120,94.082207 424.819092,110.281464 
	C425.236420,110.731895 425.818329,111.029831 427.280334,112.097816 
	C427.280334,104.373512 427.280334,97.492081 427.280334,90.610649 
	C427.280334,83.639122 427.280334,76.667587 427.280334,69.268250 
	C435.932098,69.268250 444.121552,69.268250 452.625061,69.268250 
	C452.625061,109.816460 452.625061,150.209564 452.625061,190.950394 
	C444.274567,190.950394 436.193359,190.950394 427.603790,190.950394 
	C427.411255,187.454224 427.223785,184.049911 426.973785,179.510132 
	C418.763641,188.696091 409.390991,193.626633 397.211365,192.972626 
M422.953156,162.358597 
	C427.647064,155.289597 428.720520,147.530273 426.888123,139.410568 
	C425.003296,131.058456 420.234833,124.805511 411.848053,122.270058 
	C403.892212,119.864899 396.563782,121.718018 390.795502,127.788727 
	C383.437378,135.532700 382.455170,144.961258 385.109619,154.807846 
	C387.348969,163.114487 392.691956,168.951706 401.290192,170.782562 
	C409.816925,172.598190 417.055542,169.918488 422.953156,162.358597 
z"/>
<path fill="#051428" opacity="1.000000" stroke="none" 
	d="
M159.000000,198.000000 
	C159.000717,182.019516 159.111969,166.537766 158.933609,151.059341 
	C158.881271,146.516357 160.587738,143.580643 164.443161,141.327377 
	C179.373108,132.601746 194.200165,123.700310 209.101685,114.925705 
	C213.703720,112.215851 215.935272,113.386963 215.945984,118.766937 
	C216.020508,156.219528 215.966904,193.672348 216.013596,231.125046 
	C216.018250,234.856216 214.211853,236.035721 210.752716,236.020309 
	C195.439026,235.952026 180.123932,235.902451 164.811386,236.052444 
	C160.350616,236.096130 158.961166,233.995163 158.986877,229.960236 
	C159.053711,219.473892 159.003510,208.986801 159.000000,198.000000 
z"/>
<path fill="#667EEB" opacity="1.000000" stroke="none" 
	d="
M422.740051,162.653381 
	C417.055542,169.918488 409.816925,172.598190 401.290192,170.782562 
	C392.691956,168.951706 387.348969,163.114487 385.109619,154.807846 
	C382.455170,144.961258 383.437378,135.532700 390.795502,127.788727 
	C396.563782,121.718018 403.892212,119.864899 411.848053,122.270058 
	C420.234833,124.805511 425.003296,131.058456 426.888123,139.410568 
	C428.720520,147.530273 427.647064,155.289597 422.740051,162.653381 
z"/>
</svg>